<svg width="330" height="28" viewBox="0 0 330 28" fill="none" xmlns="http://www.w3.org/2000/svg">
<path d="M104.747 0.393022C100.675 1.95024 102.608 7.67257 106.904 6.79077C108.143 6.52811 108.912 6.00277 109.381 5.0647C110.338 3.18852 109.418 1.01216 107.336 0.280452C106.285 -0.076021 105.947 -0.0572592 104.747 0.393022Z" fill="#6C6B6B"/>
<path d="M25.3847 1.19981C24.0151 1.61258 22.8894 2.06286 22.8894 2.19419C22.8894 2.30676 23.396 2.682 24.0151 3.03846L25.1408 3.6576V14.4831C25.1408 20.5807 25.0657 25.4963 24.972 25.759C24.8031 26.2092 24.1277 26.5844 23.2645 26.6782C22.9457 26.7158 22.7768 26.8658 22.7393 27.1661L22.683 27.5788H26.9044H31.1445V27.1285C31.1445 26.7532 31.0319 26.6782 30.3753 26.5844C28.8368 26.3781 28.8931 26.6595 28.8931 19.4925V13.151L29.5122 12.682C31.8388 10.9184 34.8219 10.8433 35.8724 12.5319C36.2853 13.2073 36.304 13.3574 36.3603 19.0422C36.3979 22.2317 36.379 25.121 36.304 25.4587C36.1914 26.1341 35.7411 26.4531 34.728 26.622C34.2214 26.7158 34.0713 26.8284 34.0526 27.1661L34.015 27.5788H38.2177H42.4015V27.1285C42.4015 26.7532 42.2889 26.6782 41.6324 26.5844C40.1127 26.3781 40.1501 26.5844 40.1501 20.0929C40.1501 14.1266 40.0001 12.4381 39.3997 11.2561C37.8987 8.29174 33.2646 8.29174 30.1313 11.2561C29.5873 11.7627 29.0808 12.1942 29.0245 12.1942C28.9494 12.1942 28.8931 9.53002 28.8931 6.28425V0.374298L28.3865 0.393059C28.0864 0.411821 26.7355 0.768294 25.3847 1.19981Z" fill="#6C6B6B"/>
<path d="M0.393972 6.67822C0.26264 8.59192 0.112546 10.2805 0.0562609 10.4306C-2.42628e-05 10.6182 0.0937844 10.6932 0.412734 10.6932C0.806731 10.6932 0.975586 10.4681 1.65101 8.8921C2.64538 6.62193 3.58346 5.19603 4.46526 4.65195C5.04689 4.29547 5.49717 4.22043 7.07315 4.16414L9.00561 4.0891V14.7082V25.3461L8.55532 25.7964C8.2739 26.0778 7.69229 26.3218 6.96058 26.4718C5.96621 26.6782 5.81611 26.7721 5.81611 27.1472V27.5788H11.0694H16.3227V27.1285C16.3227 26.7345 16.2101 26.6595 15.3845 26.5469C14.2777 26.3968 13.302 25.7777 13.1144 25.1398C13.0394 24.8771 12.9831 20.0553 12.9643 14.3893L12.9456 4.12661H14.6904C17.8424 4.14539 18.6117 4.83956 20.7129 9.60505C21.0693 10.4306 21.2758 10.6932 21.5759 10.6932C21.9512 10.6932 21.9699 10.6182 21.8573 9.60505C21.7636 8.55439 21.3883 3.63882 21.3883 3.33862C21.3883 3.26358 16.7167 3.18854 11.0131 3.18854H0.619112L0.393972 6.67822Z" fill="#6C6B6B"/>
<path d="M60.0376 3.84519C60.0376 4.40804 60.1126 4.50185 60.5629 4.61442C61.7073 4.85832 62.0263 5.02718 62.2327 5.4587C62.4203 5.79641 62.4766 8.23543 62.4766 15.4025C62.4766 24.6707 62.4579 24.9147 62.1013 25.3837C61.8387 25.7214 61.4634 25.9089 60.8819 26.0028C60.0563 26.1154 60.0376 26.1341 60.0376 26.8471V27.5788H66.9794H73.9212V26.8471V26.1341L72.8143 26.0215C71.4635 25.9089 70.4691 25.4587 70.1876 24.8395C70.0564 24.5581 69.9812 23.2072 69.9812 21.3124V18.2542L72.7581 18.1604C79.3246 17.9353 82.4015 15.7776 82.683 11.1623C82.8894 7.89772 81.576 5.62756 78.7054 4.27671C76.5666 3.28234 75.666 3.18854 67.5047 3.18854H60.0376V3.84519ZM72.7581 5.23356C73.7712 5.74013 74.728 6.92212 75.1032 8.08535C75.4972 9.2861 75.516 11.6313 75.1407 12.8883C74.5216 14.9522 72.833 16.3217 70.8818 16.3217H69.9812V10.4868V4.63318L70.9944 4.74575C71.5385 4.80204 72.3452 5.02718 72.7581 5.23356Z" fill="#6C6B6B"/>
<path d="M144.466 3.90153C143.939 3.95782 143.509 4.258 142.307 5.42123C140.544 7.12854 139.531 7.84149 137.617 8.76081C136.341 9.36119 136.21 9.47376 136.21 9.96156C136.21 10.4869 136.248 10.5057 137.148 10.5057H138.086V16.7533C138.086 23.5826 138.199 24.5581 139.156 25.9465C140.469 27.8415 143.734 28.4607 146.641 27.3724C147.861 26.9221 149.906 25.0835 149.906 24.4455C149.906 23.6764 149.624 23.5826 148.78 24.0141C147.636 24.5957 146.436 24.5581 145.797 23.939L145.31 23.4513L145.254 16.9785L145.197 10.5057H147.186H149.156V9.56756V8.62949H147.186H145.234L145.178 6.22798L145.121 3.84525L144.466 3.90153Z" fill="#6C6B6B"/>
<path d="M87.5234 9.45497C84.1276 10.3743 83.9587 10.4306 83.9024 10.8996C83.8649 11.2936 83.9962 11.4812 84.803 11.969L85.741 12.5507L85.7036 19.1736L85.6473 25.7964L84.7654 26.0778C83.9399 26.3405 83.8649 26.4155 83.8649 26.9597V27.5788H89.681H95.4972V26.9221C95.4972 26.3592 95.422 26.2655 94.9906 26.153C93.7898 25.8902 93.2269 25.6464 93.0581 25.3274C92.9455 25.121 92.8705 22.9258 92.8705 19.999V15.0272L94.0901 14.6519C94.8029 14.4268 96.1913 14.2205 97.4672 14.1454L99.6247 14.0141V11.4437V8.87336L99.1557 8.66697C98.499 8.36679 96.9417 8.38555 96.1913 8.7045C95.2908 9.07973 94.2589 10.3743 93.6961 11.894C93.4146 12.6257 93.0956 13.3011 93.0206 13.4137C92.9268 13.5263 92.8705 12.5131 92.9081 11.0122L92.9644 8.44183L92.0262 8.46059C91.5197 8.47936 89.4934 8.91087 87.5234 9.45497Z" fill="#6C6B6B"/>
<path d="M104.278 9.43621C100.788 10.3931 100.75 10.4118 100.75 10.9184C100.75 11.3124 100.938 11.5563 101.595 12.0066L102.439 12.5882V19.1173C102.439 24.1267 102.383 25.7027 102.214 25.8527C102.083 25.9465 101.689 26.0967 101.37 26.1717C100.825 26.2842 100.75 26.3592 100.75 26.9409V27.5788H106.098H111.445V26.9409C111.445 26.3781 111.37 26.3029 110.844 26.1904C109.493 25.9278 109.569 26.4155 109.569 16.9409V8.44183L108.687 8.46059C108.18 8.47936 106.21 8.91087 104.278 9.43621Z" fill="#6C6B6B"/>
<path d="M116.567 9.43621C112.946 10.3931 112.946 10.3931 112.946 10.9184C112.946 11.3499 113.115 11.5563 113.884 12.0253L114.822 12.6069V18.9296C114.822 25.9465 114.822 25.9278 113.602 26.153C113.002 26.2655 112.946 26.3405 112.946 26.9221V27.5788H118.293H123.64V26.9409C123.64 26.3781 123.565 26.3029 123.039 26.1904C121.726 25.9278 121.764 26.1529 121.764 19.1923V12.9446L122.289 12.7195C122.57 12.6069 123.452 12.4944 124.259 12.4944C125.647 12.4756 125.76 12.5131 126.191 13.0009L126.642 13.5263V19.5863C126.642 26.1717 126.679 25.9278 125.572 26.1717C125.028 26.2842 124.953 26.3592 124.953 26.9409V27.5788H130.3H135.647V26.9409C135.647 26.3781 135.591 26.3029 135.047 26.1904C133.809 25.9465 133.865 26.3781 133.771 18.9109L133.677 12.1004L133.171 11.031C132.608 9.83021 131.576 8.9484 130.319 8.61069C129.888 8.49812 128.837 8.44183 127.955 8.47936C125.872 8.57316 124.597 9.15478 122.964 10.7308L121.726 11.9128L121.857 10.1679L122.008 8.44183L121.088 8.46059C120.582 8.46059 118.537 8.91087 116.567 9.43621Z" fill="#6C6B6B"/>
<path d="M49.531 9.30489C45.8349 10.2993 43.3396 14.1642 43.3396 18.9485C43.3396 21.6876 44.2589 24.1267 45.8911 25.759C46.9794 26.8284 48.274 27.4662 49.9813 27.7852C52.4202 28.2355 55.3846 27.2974 56.773 25.6088C57.5048 24.6895 58.424 22.7946 58.2552 22.5131C58.1802 22.4006 57.7673 22.7196 57.2983 23.2448C56.0788 24.6144 54.7092 25.2148 52.9081 25.2335C51.2382 25.2335 50.0188 24.7645 48.9118 23.6764C47.5797 22.4006 46.7167 20.0929 46.7167 17.879V16.697H52.4578H58.2176L58.105 15.3273C57.8612 12.0629 56.1913 9.94279 53.3021 9.26736C51.9699 8.94842 50.8255 8.94842 49.531 9.30489ZM52.8331 10.5244C53.8462 11.1435 54.7468 13.4512 54.7842 15.5151C54.7842 15.7026 53.8462 15.7589 50.7505 15.7589C48.5365 15.7589 46.7167 15.7026 46.7167 15.6088C46.7354 15.1211 47.3358 13.001 47.636 12.4193C48.0863 11.5188 49.3621 10.3556 50.0375 10.2055C50.3377 10.1492 50.6567 10.0741 50.7505 10.0366C51.1257 9.90527 52.2702 10.1867 52.8331 10.5244Z" fill="#6C6B6B"/>
<g clip-path="url(#clip0_1573_1586)">
<path d="M180 22.5035V21.709C180.377 21.6613 180.638 21.5533 180.787 21.3818C180.936 21.2101 181.012 20.9226 181.012 20.5156V7.32575C181.012 6.91044 180.936 6.6152 180.787 6.43544C180.638 6.25591 180.377 6.14409 180 6.09609V5.31381H184.823C186.501 5.31381 187.81 5.66096 188.754 6.3596C189.693 7.05834 190.167 8.02428 190.167 9.25382C190.167 10.3517 189.798 11.2699 189.063 12.0083C188.324 12.7469 187.276 13.25 185.911 13.5214C187.449 13.7729 188.621 14.2719 189.432 15.0184C190.243 15.7649 190.649 16.723 190.649 17.8847C190.649 19.3818 190.167 20.5275 189.203 21.3178C188.24 22.1083 186.842 22.5035 185.015 22.5035H180ZM184.023 13.1582H184.317C185.236 13.1582 185.899 12.8827 186.304 12.3318C186.714 11.7807 186.915 10.8747 186.915 9.61311C186.915 8.24791 186.758 7.32163 186.449 6.83081C186.14 6.33966 185.59 6.09219 184.794 6.09219C184.481 6.09219 184.272 6.14821 184.172 6.25981C184.072 6.37162 184.019 6.60328 184.019 6.95455V13.1582H184.023ZM184.023 13.9087V20.4476C184.023 20.9226 184.096 21.254 184.236 21.4376C184.377 21.6214 184.622 21.7132 184.967 21.7132C185.75 21.7132 186.332 21.4296 186.714 20.8588C187.095 20.288 187.284 19.4098 187.284 18.2161C187.284 16.6872 187.031 15.5892 186.521 14.9227C186.007 14.252 185.176 13.9165 184.023 13.9087Z" fill="#6C6B6B"/>
<path d="M197.788 13.1144C197.788 12.687 197.728 12.3877 197.612 12.2201C197.495 12.0524 197.278 11.9365 196.965 11.8768V11.1263C197.712 11.1263 198.354 11.1183 198.893 11.0982C199.435 11.0783 199.932 11.0504 200.386 11.0106V20.5394C200.386 20.9826 200.45 21.2901 200.579 21.4538C200.707 21.6174 200.948 21.7212 201.302 21.769V22.5515C200.354 22.5915 199.64 22.6233 199.166 22.6514C198.692 22.6791 198.254 22.7072 197.852 22.739L197.804 21.0425C197.342 21.6572 196.885 22.1044 196.439 22.3797C195.993 22.6553 195.507 22.7951 194.981 22.7951C194.118 22.7951 193.508 22.5115 193.146 21.9487C192.785 21.3818 192.604 20.4038 192.604 19.0066V13.1144C192.604 12.6712 192.548 12.3677 192.436 12.2081C192.323 12.0483 192.11 11.9365 191.805 11.8768V11.1263C192.552 11.1263 193.195 11.1183 193.733 11.0982C194.275 11.0783 194.773 11.0504 195.226 11.0106V19.278C195.226 19.9487 195.307 20.4277 195.467 20.7112C195.628 20.9946 195.893 21.1383 196.262 21.1383C196.74 21.1383 197.114 20.9107 197.379 20.4557C197.644 20.0006 197.78 19.3579 197.78 18.5314V13.1144H197.788Z" fill="#6C6B6B"/>
<path d="M202.563 17.9567H203.398C203.619 19.2021 204 20.1883 204.546 20.9027C205.092 21.6214 205.719 21.9807 206.434 21.9807C206.843 21.9807 207.176 21.8489 207.437 21.5896C207.698 21.3301 207.831 20.9946 207.831 20.5914C207.831 20.264 207.726 19.9407 207.514 19.6214C207.301 19.302 206.996 19.0106 206.594 18.7431C206.486 18.6713 206.329 18.5714 206.124 18.4398C204.462 17.3498 203.442 16.4955 203.065 15.8768C202.892 15.6055 202.763 15.306 202.683 14.9867C202.599 14.6673 202.559 14.332 202.559 13.9805C202.559 13.0903 202.828 12.3478 203.366 11.7451C203.904 11.1463 204.562 10.8427 205.349 10.8427C205.703 10.8427 206.104 10.9346 206.562 11.1183C207.016 11.3019 207.297 11.3938 207.397 11.3938C207.53 11.3938 207.654 11.3458 207.767 11.254C207.879 11.1622 207.975 11.0306 208.056 10.8669H208.799V15.0784H208C207.694 13.9566 207.313 13.0984 206.859 12.5115C206.405 11.9246 205.895 11.6294 205.329 11.6294C204.992 11.6294 204.703 11.749 204.466 11.9927C204.225 12.236 204.109 12.5315 204.109 12.8827C204.109 13.5136 204.783 14.2481 206.132 15.0823L206.181 15.1065C207.429 15.8849 208.289 16.5913 208.762 17.2222C209.236 17.8529 209.473 18.5714 209.473 19.3738C209.473 20.3159 209.164 21.1225 208.545 21.7931C207.927 22.4638 207.176 22.7991 206.297 22.7991C205.859 22.7991 205.401 22.6953 204.928 22.4835C204.454 22.2722 204.173 22.1684 204.089 22.1684C203.996 22.1684 203.892 22.2082 203.775 22.2841C203.663 22.3639 203.482 22.5315 203.241 22.7991H202.571V17.9567H202.563Z" fill="#6C6B6B"/>
<path d="M214.067 20.5395C214.067 20.9588 214.135 21.2581 214.268 21.4338C214.4 21.6094 214.641 21.7291 214.986 21.789V22.5035H210.549V21.789C210.903 21.7251 211.144 21.6094 211.272 21.4338C211.401 21.2581 211.465 20.9588 211.465 20.5395V13.1582C211.465 12.7071 211.397 12.3957 211.264 12.2281C211.132 12.0602 210.895 11.9565 210.557 11.9165V11.1224C210.987 11.1062 211.461 11.0863 211.971 11.0583C212.481 11.0305 213.18 10.9905 214.063 10.9345V20.5395H214.067ZM213.999 6.69096C213.999 7.08221 213.85 7.42156 213.557 7.71291C213.264 8.00438 212.918 8.15217 212.529 8.15217C212.135 8.15217 211.794 8.0085 211.501 7.72104C211.208 7.43348 211.059 7.09023 211.059 6.69096C211.059 6.29971 211.208 5.96036 211.501 5.66901C211.794 5.37766 212.139 5.22998 212.529 5.22998C212.93 5.22998 213.276 5.37766 213.565 5.66901C213.854 5.96036 213.999 6.30383 213.999 6.69096Z" fill="#6C6B6B"/>
<path d="M219.68 20.5395C219.68 20.9587 219.749 21.2581 219.881 21.4337C220.014 21.6095 220.255 21.7291 220.6 21.789V22.5036H216.163V21.789C216.508 21.7252 216.745 21.6095 216.869 21.4378C216.994 21.266 217.058 20.9665 217.058 20.5356V13.1582C217.058 12.699 216.994 12.3876 216.866 12.224C216.737 12.0603 216.508 11.9606 216.179 11.9207V11.1262C217.098 11.0863 217.793 11.0544 218.271 11.0263C218.749 10.9986 219.191 10.9705 219.588 10.9387L219.636 12.6352C220.098 12.0364 220.556 11.5973 221.002 11.3258C221.447 11.0544 221.933 10.9145 222.459 10.9145C223.322 10.9145 223.933 11.194 224.294 11.7569C224.655 12.3199 224.836 13.2979 224.836 14.691V20.5395C224.836 20.9665 224.896 21.266 225.013 21.4337C225.129 21.6015 225.338 21.7213 225.635 21.789V22.5036H222.21V14.4116C222.21 13.7251 222.134 13.246 221.981 12.9746C221.829 12.7032 221.568 12.5634 221.198 12.5634C220.72 12.5634 220.347 12.7869 220.082 13.234C219.817 13.681 219.68 14.3198 219.68 15.1461V20.5395Z" fill="#6C6B6B"/>
<path d="M233.891 18.6474H234.666C234.574 19.9488 234.192 20.9667 233.53 21.7014C232.867 22.4359 232 22.799 230.924 22.799C229.675 22.799 228.655 22.2602 227.86 21.1864C227.065 20.1084 226.667 18.7152 226.667 16.9986C226.667 15.1661 227.057 13.6811 227.832 12.5475C228.607 11.4138 229.607 10.8468 230.831 10.8468C232.032 10.8468 232.971 11.3857 233.65 12.4676C234.329 13.5494 234.666 15.0584 234.666 16.9986V17.0905H229.582V17.5216C229.582 18.8548 229.747 19.8608 230.076 20.5434C230.406 21.2263 230.9 21.5654 231.558 21.5654C232.168 21.5654 232.678 21.314 233.088 20.8071C233.497 20.304 233.767 19.5814 233.891 18.6474ZM229.562 16.1323H231.976V15.3937C231.976 13.9885 231.887 13.0065 231.719 12.4476C231.546 11.8846 231.253 11.6052 230.835 11.6052C230.414 11.6052 230.092 11.9606 229.884 12.6713C229.671 13.3816 229.566 14.4557 229.566 15.9008V16.1323H229.562Z" fill="#6C6B6B"/>
<path d="M235.903 17.9567H236.738C236.959 19.2021 237.34 20.1883 237.886 20.9027C238.432 21.6214 239.059 21.9807 239.774 21.9807C240.183 21.9807 240.516 21.8489 240.777 21.5896C241.038 21.3301 241.171 20.9946 241.171 20.5914C241.171 20.264 241.067 19.9407 240.854 19.6214C240.641 19.302 240.336 19.0106 239.934 18.7431C239.826 18.6713 239.669 18.5714 239.464 18.4398C237.802 17.3498 236.782 16.4955 236.405 15.8768C236.232 15.6055 236.104 15.306 236.023 14.9867C235.939 14.6673 235.899 14.332 235.899 13.9805C235.899 13.0903 236.168 12.3478 236.706 11.7451C237.244 11.1463 237.902 10.8427 238.689 10.8427C239.043 10.8427 239.444 10.9346 239.902 11.1183C240.356 11.3019 240.637 11.3938 240.737 11.3938C240.87 11.3938 240.994 11.3458 241.107 11.254C241.219 11.1622 241.315 11.0306 241.396 10.8669H242.139V15.0784H241.339C241.034 13.9566 240.653 13.0984 240.199 12.5115C239.745 11.9246 239.235 11.6294 238.669 11.6294C238.332 11.6294 238.043 11.749 237.806 11.9927C237.565 12.236 237.449 12.5315 237.449 12.8827C237.449 13.5136 238.123 14.2481 239.472 15.0823L239.521 15.1065C240.769 15.8849 241.629 16.5913 242.103 17.2222C242.576 17.8529 242.813 18.5714 242.813 19.3738C242.813 20.3159 242.504 21.1225 241.886 21.7931C241.267 22.4638 240.516 22.7991 239.637 22.7991C239.199 22.7991 238.742 22.6953 238.268 22.4835C237.794 22.2722 237.513 22.1684 237.429 22.1684C237.336 22.1684 237.232 22.2082 237.115 22.2841C237.003 22.3639 236.822 22.5315 236.581 22.7991H235.911V17.9567H235.903Z" fill="#6C6B6B"/>
<path d="M244.042 17.9567H244.877C245.098 19.2021 245.48 20.1883 246.026 20.9027C246.572 21.6214 247.198 21.9807 247.913 21.9807C248.322 21.9807 248.656 21.8489 248.917 21.5896C249.178 21.3301 249.31 20.9946 249.31 20.5914C249.31 20.264 249.206 19.9407 248.993 19.6214C248.78 19.302 248.475 19.0106 248.073 18.7431C247.965 18.6713 247.808 18.5714 247.604 18.4398C245.941 17.3498 244.921 16.4955 244.544 15.8768C244.371 15.6055 244.243 15.306 244.162 14.9867C244.078 14.6673 244.038 14.332 244.038 13.9805C244.038 13.0903 244.307 12.3478 244.845 11.7451C245.383 11.1463 246.042 10.8427 246.829 10.8427C247.182 10.8427 247.583 10.9346 248.041 11.1183C248.495 11.3019 248.776 11.3938 248.877 11.3938C249.009 11.3938 249.133 11.3458 249.246 11.254C249.358 11.1622 249.455 11.0306 249.535 10.8669H250.278V15.0784H249.479C249.174 13.9566 248.792 13.0984 248.338 12.5115C247.885 11.9246 247.375 11.6294 246.808 11.6294C246.471 11.6294 246.182 11.749 245.945 11.9927C245.704 12.236 245.588 12.5315 245.588 12.8827C245.588 13.5136 246.262 14.2481 247.612 15.0823L247.66 15.1065C248.908 15.8849 249.768 16.5913 250.242 17.2222C250.716 17.8529 250.952 18.5714 250.952 19.3738C250.952 20.3159 250.643 21.1225 250.025 21.7931C249.407 22.4638 248.656 22.7991 247.776 22.7991C247.339 22.7991 246.881 22.6953 246.407 22.4835C245.933 22.2722 245.652 22.1684 245.568 22.1684C245.475 22.1684 245.371 22.2082 245.255 22.2841C245.142 22.3639 244.961 22.5315 244.72 22.7991H244.05V17.9567H244.042Z" fill="#6C6B6B"/>
<path d="M257.112 22.7991V16.9028H258.124C258.526 18.4994 259.056 19.7331 259.722 20.5913C260.388 21.4538 261.144 21.8847 261.978 21.8847C262.529 21.8847 262.975 21.7052 263.316 21.3459C263.658 20.9865 263.826 20.5195 263.826 19.9407C263.826 19.3857 263.657 18.8269 263.32 18.2561C262.982 17.6851 262.183 16.763 260.919 15.4855C260.73 15.3059 260.465 15.0503 260.12 14.7151C259.068 13.6851 258.385 12.9387 258.072 12.4715C257.734 11.9565 257.482 11.4375 257.313 10.9106C257.144 10.3837 257.06 9.8526 257.06 9.31378C257.06 8.12031 257.409 7.1183 258.112 6.30784C258.815 5.49728 259.666 5.09021 260.67 5.09021C261.087 5.09021 261.562 5.21005 262.091 5.45339C262.625 5.69708 262.962 5.81669 263.103 5.81669C263.283 5.81669 263.453 5.76089 263.609 5.6532C263.766 5.54528 263.902 5.38156 264.022 5.16204H264.81V10.763H263.846C263.493 9.17412 263.043 7.97241 262.493 7.16608C261.943 6.35963 261.304 5.95647 260.573 5.95647C260.079 5.95647 259.674 6.11216 259.361 6.42356C259.047 6.73484 258.891 7.13801 258.891 7.62916C258.891 8.51936 259.831 9.87264 261.714 11.7012L261.951 11.9246C262.007 11.9806 262.099 12.0643 262.231 12.1802C263.111 12.9984 263.834 13.7809 264.408 14.5315C264.83 15.1103 265.151 15.721 265.36 16.3679C265.572 17.0144 265.677 17.6892 265.677 18.3917C265.677 19.6613 265.327 20.7112 264.625 21.5375C263.922 22.3639 263.039 22.779 261.971 22.779C261.429 22.779 260.843 22.6434 260.208 22.3678C259.573 22.0925 259.188 21.9566 259.056 21.9566C258.875 21.9566 258.71 22.0085 258.562 22.1163C258.413 22.224 258.2 22.4477 257.927 22.7991H257.112Z" fill="#6C6B6B"/>
<path d="M267.713 20.1084V12.0845H266.512V11.1264C267.343 10.6912 267.994 10.0484 268.464 9.20209C268.933 8.35577 269.234 7.28191 269.371 5.98053H270.311V11.1264H272.403V12.0845H270.311V20.1524C270.311 20.6035 270.355 20.9189 270.447 21.0945C270.539 21.2701 270.692 21.3579 270.913 21.3579C271.218 21.3579 271.455 21.1423 271.624 20.7153C271.793 20.2882 271.877 19.6932 271.877 18.9388H272.652V19.1263C272.652 20.3281 272.427 21.2383 271.977 21.8649C271.528 22.4878 270.865 22.799 269.993 22.799C269.211 22.799 268.633 22.5835 268.263 22.1484C267.894 21.7133 267.713 21.0346 267.713 20.1084Z" fill="#6C6B6B"/>
<path d="M278.005 21.2063C277.667 21.7291 277.282 22.1245 276.853 22.392C276.422 22.6592 275.952 22.7952 275.451 22.7952C274.752 22.7952 274.181 22.5476 273.732 22.0526C273.282 21.5576 273.061 20.9228 273.061 20.1524C273.061 19.1224 273.479 18.1801 274.314 17.326C275.15 16.4717 276.327 15.7891 277.848 15.2741V13.6613C277.848 12.9666 277.747 12.4756 277.547 12.1802C277.346 11.8847 277.009 11.7409 276.53 11.7409C276.318 11.7409 276.114 11.7809 275.912 11.8569C275.711 11.9366 275.531 12.0403 275.366 12.1722C275.679 12.2801 275.924 12.4477 276.097 12.6752C276.27 12.9028 276.354 13.1663 276.354 13.4696C276.354 13.8447 276.225 14.1484 275.972 14.3839C275.719 14.6192 275.383 14.7352 274.969 14.7352C274.514 14.7352 274.146 14.6034 273.868 14.3359C273.592 14.0723 273.451 13.729 273.451 13.3059C273.451 12.6353 273.805 12.0603 274.511 11.5813C275.218 11.1024 276.092 10.8628 277.133 10.8628C278.278 10.8628 279.12 11.1102 279.654 11.6053C280.192 12.1002 280.462 12.8827 280.462 13.9486V20.1003C280.462 20.5356 280.49 20.819 280.546 20.9427C280.603 21.0664 280.698 21.1303 280.839 21.1303C281.02 21.1303 281.152 21.0226 281.241 20.8071C281.325 20.5914 281.369 20.264 281.369 19.817H281.98V20.1444C281.98 21.0026 281.811 21.6573 281.477 22.1084C281.144 22.5596 280.666 22.7871 280.049 22.7871C279.594 22.7871 279.201 22.6592 278.867 22.3998C278.534 22.1403 278.249 21.7532 278.005 21.2063ZM277.852 16.2003C277.177 16.3958 276.651 16.795 276.274 17.3978C275.896 18.0006 275.707 18.7592 275.707 19.6733C275.707 20.2043 275.779 20.5995 275.924 20.867C276.069 21.1303 276.285 21.266 276.578 21.266C276.932 21.266 277.234 21.0625 277.479 20.6514C277.723 20.2402 277.848 19.7251 277.848 19.1024V16.2003H277.852Z" fill="#6C6B6B"/>
<path d="M286.148 20.5395C286.148 20.9587 286.216 21.2581 286.348 21.4337C286.481 21.6095 286.722 21.7291 287.067 21.789V22.5036H282.634V21.789C282.98 21.7252 283.216 21.6095 283.341 21.4378C283.465 21.266 283.529 20.9665 283.529 20.5356V13.1582C283.529 12.699 283.465 12.3876 283.337 12.224C283.208 12.0603 282.98 11.9606 282.651 11.9207V11.1262C283.57 11.0863 284.264 11.0544 284.743 11.0263C285.219 10.9986 285.662 10.9705 286.06 10.9387L286.108 12.6352C286.569 12.0364 287.027 11.5973 287.473 11.3258C287.919 11.0544 288.404 10.9145 288.93 10.9145C289.793 10.9145 290.404 11.194 290.765 11.7569C291.127 12.3199 291.308 13.2979 291.308 14.691V20.5395C291.308 20.9665 291.368 21.266 291.485 21.4337C291.601 21.6015 291.809 21.7213 292.107 21.789V22.5036H288.681V14.4116C288.681 13.7251 288.605 13.246 288.452 12.9746C288.3 12.7032 288.039 12.5634 287.669 12.5634C287.192 12.5634 286.819 12.7869 286.553 13.234C286.288 13.681 286.151 14.3198 286.151 15.1461V20.5395H286.148Z" fill="#6C6B6B"/>
<path d="M299.085 7.26587C299.085 6.84666 299.005 6.54729 298.849 6.37578C298.692 6.20404 298.395 6.08833 297.953 6.0244V5.31385C298.619 5.28188 299.266 5.24981 299.889 5.21394C300.51 5.17808 301.117 5.13821 301.707 5.09021V20.5874C301.707 21.0384 301.767 21.3379 301.884 21.4776C302 21.6173 302.233 21.7052 302.579 21.7332V22.5035C302.522 22.5035 302.443 22.5076 302.33 22.5156C300.996 22.5795 299.944 22.6434 299.178 22.7152L299.13 21.4737C298.752 21.9089 298.374 22.2402 297.988 22.4638C297.604 22.6872 297.231 22.795 296.861 22.795C295.784 22.795 294.937 22.272 294.319 21.2263C293.7 20.1801 293.391 18.7311 293.391 16.8748C293.391 15.0743 293.725 13.6172 294.391 12.5075C295.058 11.3977 295.909 10.8427 296.945 10.8427C297.354 10.8427 297.732 10.9426 298.085 11.1462C298.439 11.3499 298.772 11.6612 299.085 12.0803V7.26587ZM299.085 14.5514C299.085 13.8089 298.957 13.2301 298.696 12.807C298.435 12.3838 298.085 12.1762 297.635 12.1762C297.109 12.1762 296.745 12.4756 296.543 13.0783C296.339 13.6771 296.239 14.9028 296.239 16.751C296.239 18.6752 296.347 19.9487 296.563 20.5714C296.78 21.1941 297.162 21.5016 297.712 21.5016C298.13 21.5016 298.463 21.302 298.712 20.9068C298.96 20.5115 299.089 19.9686 299.089 19.2819V14.5514H299.085Z" fill="#6C6B6B"/>
<path d="M308.24 21.2063C307.903 21.7291 307.518 22.1245 307.088 22.392C306.659 22.6592 306.188 22.7952 305.687 22.7952C304.988 22.7952 304.418 22.5476 303.968 22.0526C303.518 21.5576 303.298 20.9228 303.298 20.1524C303.298 19.1224 303.716 18.1801 304.55 17.326C305.386 16.4717 306.562 15.7891 308.084 15.2741V13.6613C308.084 12.9666 307.984 12.4756 307.783 12.1802C307.583 11.8847 307.245 11.7409 306.767 11.7409C306.554 11.7409 306.349 11.7809 306.148 11.8569C305.948 11.9366 305.767 12.0403 305.602 12.1722C305.915 12.2801 306.161 12.4477 306.333 12.6752C306.506 12.9028 306.591 13.1663 306.591 13.4696C306.591 13.8447 306.461 14.1484 306.208 14.3839C305.955 14.6192 305.619 14.7352 305.204 14.7352C304.751 14.7352 304.382 14.6034 304.104 14.3359C303.828 14.0723 303.687 13.729 303.687 13.3059C303.687 12.6353 304.041 12.0603 304.747 11.5813C305.454 11.1024 306.329 10.8628 307.37 10.8628C308.513 10.8628 309.357 11.1102 309.89 11.6053C310.429 12.1002 310.697 12.8827 310.697 13.9486V20.1003C310.697 20.5356 310.726 20.819 310.782 20.9427C310.839 21.0664 310.935 21.1303 311.075 21.1303C311.256 21.1303 311.388 21.0226 311.477 20.8071C311.561 20.5914 311.606 20.264 311.606 19.817H312.216V20.1444C312.216 21.0026 312.047 21.6573 311.714 22.1084C311.38 22.5596 310.902 22.7871 310.284 22.7871C309.83 22.7871 309.437 22.6592 309.104 22.3998C308.77 22.1403 308.482 21.7532 308.24 21.2063ZM308.084 16.2003C307.41 16.3958 306.884 16.795 306.506 17.3978C306.128 18.0006 305.94 18.7592 305.94 19.6733C305.94 20.2043 306.012 20.5995 306.156 20.867C306.301 21.1303 306.518 21.266 306.811 21.266C307.165 21.266 307.466 21.0625 307.711 20.6514C307.956 20.2402 308.08 19.7251 308.08 19.1024V16.2003H308.084Z" fill="#6C6B6B"/>
<path d="M312.746 22.5036V21.789C313.168 21.6971 313.449 21.5734 313.581 21.4218C313.713 21.2701 313.782 20.9665 313.782 20.5156V13.1143C313.782 12.6791 313.705 12.3757 313.552 12.2081C313.4 12.0403 313.107 11.9246 312.678 11.8646V11.1262L312.89 11.1143C314.356 11.0505 315.488 10.9945 316.292 10.9387L316.315 13.3816C316.588 12.5794 316.941 11.9687 317.367 11.5454C317.793 11.1223 318.271 10.9145 318.797 10.9145C319.25 10.9145 319.624 11.0583 319.909 11.3419C320.194 11.6252 320.339 11.9964 320.339 12.4476C320.339 12.8747 320.199 13.2259 319.921 13.5015C319.644 13.7729 319.283 13.9127 318.845 13.9127C318.508 13.9127 318.227 13.817 317.998 13.6213C317.769 13.4257 317.592 13.1383 317.467 12.7551C317.098 13.262 316.818 13.9526 316.628 14.8268C316.435 15.7011 316.34 16.7311 316.34 17.9128V20.3799C316.34 20.8869 316.424 21.2221 316.593 21.3898C316.761 21.5576 317.094 21.6413 317.597 21.6413H317.737V22.5077H312.746V22.5036Z" fill="#6C6B6B"/>
<path d="M326.506 7.26587C326.506 6.84666 326.426 6.54729 326.27 6.37578C326.113 6.20404 325.815 6.08833 325.374 6.0244V5.31385C326.04 5.28188 326.687 5.24981 327.31 5.21394C327.932 5.17808 328.538 5.13821 329.128 5.09021V20.5874C329.128 21.0384 329.189 21.3379 329.306 21.4776C329.422 21.6173 329.654 21.7052 330 21.7332V22.5035C329.944 22.5035 329.863 22.5076 329.751 22.5156C328.417 22.5795 327.365 22.6434 326.599 22.7152L326.551 21.4737C326.173 21.9089 325.796 22.2402 325.411 22.4638C325.025 22.6872 324.652 22.795 324.282 22.795C323.205 22.795 322.358 22.272 321.74 21.2263C321.121 20.1801 320.813 18.7311 320.813 16.8748C320.813 15.0743 321.146 13.6172 321.812 12.5075C322.479 11.3977 323.33 10.8427 324.367 10.8427C324.776 10.8427 325.153 10.9426 325.507 11.1462C325.86 11.3499 326.193 11.6612 326.506 12.0803V7.26587ZM326.506 14.5514C326.506 13.8089 326.378 13.2301 326.117 12.807C325.857 12.3838 325.507 12.1762 325.058 12.1762C324.53 12.1762 324.166 12.4756 323.964 13.0783C323.76 13.6771 323.66 14.9028 323.66 16.751C323.66 18.6752 323.768 19.9487 323.985 20.5714C324.202 21.1941 324.583 21.5016 325.133 21.5016C325.551 21.5016 325.884 21.302 326.133 20.9068C326.383 20.5115 326.511 19.9686 326.511 19.2819V14.5514H326.506Z" fill="#6C6B6B"/>
</g>
<defs>
<clipPath id="clip0_1573_1586">
<rect width="150" height="17.8195" fill="white" transform="translate(180 5.09021)"/>
</clipPath>
</defs>
</svg>
