<svg width="396" height="151" viewBox="0 0 396 151" fill="none" xmlns="http://www.w3.org/2000/svg">
<path d="M25.5526 120.419H8.39502V34.7649H25.5526V69.0505H59.8082V34.7649H76.9657V120.419H59.8082V86.1934H25.5526V120.419ZM152.847 87.8659C152.847 92.6444 151.99 97.1042 150.276 101.246C148.563 105.347 146.231 108.911 143.282 111.937C140.333 114.924 136.865 117.293 132.88 119.045C128.934 120.758 124.689 121.614 120.146 121.614C115.642 121.614 111.398 120.758 107.412 119.045C103.467 117.293 99.9993 114.924 97.0102 111.937C94.0608 108.911 91.7292 105.347 90.0155 101.246C88.3018 97.1042 87.4449 92.6444 87.4449 87.8659C87.4449 83.0077 88.3018 78.5079 90.0155 74.3665C91.7292 70.2253 94.0608 66.6613 97.0102 63.6747C99.9993 60.6484 103.467 58.2791 107.412 56.5668C111.398 54.8544 115.642 53.9983 120.146 53.9983C124.689 53.9983 128.934 54.8147 132.88 56.4472C136.865 58.0401 140.333 60.3298 143.282 63.3163C146.231 66.2631 148.563 69.8269 150.276 74.0083C151.99 78.1495 152.847 82.7688 152.847 87.8659ZM136.407 87.8659C136.407 85.2377 135.968 82.8684 135.092 80.7578C134.255 78.6075 133.099 76.7758 131.624 75.2625C130.15 73.7095 128.416 72.5348 126.423 71.7383C124.47 70.9023 122.378 70.4841 120.146 70.4841C117.914 70.4841 115.802 70.9023 113.809 71.7383C111.856 72.5348 110.142 73.7095 108.668 75.2625C107.233 76.7758 106.097 78.6075 105.26 80.7578C104.423 82.8684 104.005 85.2377 104.005 87.8659C104.005 90.3346 104.423 92.6243 105.26 94.7349C106.097 96.8454 107.233 98.6771 108.668 100.23C110.142 101.783 111.856 103.017 113.809 103.933C115.802 104.809 117.914 105.248 120.146 105.248C122.378 105.248 124.47 104.829 126.423 103.993C128.416 103.157 130.15 101.982 131.624 100.469C133.099 98.9558 134.255 97.1241 135.092 94.9738C135.968 92.8235 136.407 90.4541 136.407 87.8659ZM226.696 87.8659C226.696 92.8833 225.839 97.4626 224.125 101.604C222.411 105.745 220.08 109.309 217.131 112.296C214.181 115.243 210.714 117.532 206.727 119.165C202.783 120.797 198.538 121.614 193.994 121.614C189.491 121.614 185.246 120.778 181.261 119.105C177.315 117.433 173.848 115.103 170.859 112.116C167.909 109.13 165.578 105.586 163.864 101.485C162.15 97.3431 161.294 92.8036 161.294 87.8659V31.002H177.674V60.8675C178.551 59.7524 179.607 58.7569 180.842 57.8807C182.118 57.0047 183.473 56.288 184.908 55.7304C186.382 55.173 187.897 54.7548 189.451 54.4761C191.006 54.1575 192.519 53.9983 193.994 53.9983C198.538 53.9983 202.783 54.8544 206.727 56.5668C210.714 58.2393 214.181 60.5886 217.131 63.6149C220.08 66.6414 222.411 70.2253 224.125 74.3665C225.839 78.4681 226.696 82.9677 226.696 87.8659ZM210.255 87.8659C210.255 85.3969 209.817 83.1073 208.941 80.9967C208.103 78.8464 206.947 76.9946 205.472 75.4418C203.997 73.8886 202.264 72.6741 200.273 71.7981C198.32 70.9221 196.227 70.4841 193.994 70.4841C191.764 70.4841 189.65 70.9818 187.658 71.9772C185.705 72.9329 183.991 74.2271 182.516 75.8598C181.042 77.4526 179.886 79.3044 179.049 81.4149C178.212 83.4855 177.794 85.6359 177.794 87.8659C177.794 90.3346 178.212 92.6243 179.049 94.7349C179.886 96.8454 181.042 98.6771 182.516 100.23C183.991 101.783 185.705 103.017 187.658 103.933C189.65 104.809 191.764 105.248 193.994 105.248C196.227 105.248 198.32 104.809 200.273 103.933C202.264 103.017 203.997 101.783 205.472 100.23C206.947 98.6771 208.103 96.8454 208.941 94.7349C209.817 92.6243 210.255 90.3346 210.255 87.8659Z" fill="white"/>
<path d="M25.5525 120.419V124.242H29.3786V120.419H25.5525ZM8.39493 120.419H4.56885V124.242H8.39493V120.419ZM8.39493 34.7649V30.9422H4.56885V34.7649H8.39493ZM25.5525 34.7649H29.3786V30.9422H25.5525V34.7649ZM25.5525 69.0505H21.7265V72.8733H25.5525V69.0505ZM59.8081 69.0505V72.8733H63.6342V69.0505H59.8081ZM59.8081 34.7649V30.9422H55.982V34.7649H59.8081ZM76.9656 34.7649H80.7917V30.9422H76.9656V34.7649ZM76.9656 120.419V124.242H80.7917V120.419H76.9656ZM59.8081 120.419H55.982V124.242H59.8081V120.419ZM59.8081 86.1934H63.6342V82.3707H59.8081V86.1934ZM25.5525 86.1934V82.3707H21.7265V86.1934H25.5525ZM25.5525 116.596H8.39493V124.242H25.5525V116.596ZM12.221 120.419V34.7649H4.56885V120.419H12.221ZM8.39493 38.5877H25.5525V30.9422H8.39493V38.5877ZM21.7265 34.7649V69.0505H29.3786V34.7649H21.7265ZM25.5525 72.8733H59.8081V65.2278H25.5525V72.8733ZM63.6342 69.0505V34.7649H55.982V69.0505H63.6342ZM59.8081 38.5877H76.9656V30.9422H59.8081V38.5877ZM73.1395 34.7649V120.419H80.7917V34.7649H73.1395ZM76.9656 116.596H59.8081V124.242H76.9656V116.596ZM63.6342 120.419V86.1934H55.982V120.419H63.6342ZM59.8081 82.3707H25.5525V90.0162H59.8081V82.3707ZM21.7265 86.1934V120.419H29.3786V86.1934H21.7265ZM150.276 101.246L153.807 102.718L153.812 102.706L150.276 101.246ZM143.282 111.937L146.005 114.622L146.023 114.604L143.282 111.937ZM132.88 119.045L134.404 122.552L134.42 122.544L132.88 119.045ZM107.412 119.045L105.858 122.539L105.88 122.548L105.901 122.557L107.412 119.045ZM97.0101 111.937L94.2687 114.604L94.2865 114.623L94.3045 114.64L97.0101 111.937ZM90.0154 101.246L86.4795 102.706L86.4847 102.718L90.0154 101.246ZM107.412 56.5669L105.901 53.0549L105.888 53.0604L107.412 56.5669ZM132.88 56.4472L131.416 59.9793L131.437 59.9881L131.459 59.9967L132.88 56.4472ZM143.282 63.3164L140.558 66.0013L140.576 66.0195L143.282 63.3164ZM150.276 74.0083L146.736 75.457L146.741 75.4688L150.276 74.0083ZM135.091 80.7578L131.526 82.1434L131.541 82.1835L131.558 82.2235L135.091 80.7578ZM131.624 75.2626L128.848 77.8936L128.866 77.9116L128.883 77.9293L131.624 75.2626ZM126.423 71.7383L124.916 75.2521L124.959 75.2704L125.002 75.2878L126.423 71.7383ZM113.809 71.7383L115.255 75.2777L115.273 75.2704L115.291 75.2629L113.809 71.7383ZM108.668 75.2626L105.892 72.6315L105.89 72.6334L108.668 75.2626ZM105.26 80.7578L108.817 82.1659L108.826 82.1434L105.26 80.7578ZM108.668 100.23L105.856 102.823L105.874 102.842L105.892 102.861L108.668 100.23ZM113.809 103.933L112.183 107.394L112.225 107.414L112.268 107.432L113.809 103.933ZM126.423 103.993L124.941 100.469L124.929 100.474L124.916 100.48L126.423 103.993ZM135.091 94.9738L131.548 93.5315L131.537 93.5598L131.526 93.5882L135.091 94.9738ZM149.021 87.8659C149.021 92.1767 148.25 96.1369 146.741 99.785L153.812 102.706C155.73 98.0716 156.673 93.1119 156.673 87.8659H149.021ZM146.746 99.7727C145.207 103.454 143.136 106.607 140.54 109.271L146.023 114.604C149.326 111.215 151.917 107.24 153.807 102.718L146.746 99.7727ZM140.558 109.252C137.961 111.883 134.899 113.981 131.339 115.546L134.42 122.544C138.831 120.605 142.704 117.965 146.005 114.622L140.558 109.252ZM131.355 115.539C127.917 117.031 124.195 117.791 120.146 117.791V125.437C125.184 125.437 129.95 124.484 134.404 122.552L131.355 115.539ZM120.146 117.791C116.142 117.791 112.413 117.033 108.924 115.534L105.901 122.557C110.382 124.482 115.143 125.437 120.146 125.437V117.791ZM108.966 115.552C105.44 113.986 102.365 111.882 99.7155 109.234L94.3045 114.64C97.633 117.966 101.493 120.6 105.858 122.539L108.966 115.552ZM99.7513 109.271C97.1555 106.607 95.0842 103.454 93.5461 99.7727L86.4847 102.718C88.3742 107.24 90.966 111.215 94.2687 114.604L99.7513 109.271ZM93.5513 99.785C92.0415 96.1369 91.271 92.1767 91.271 87.8659H83.6188C83.6188 93.1119 84.5615 98.0716 86.4795 102.706L93.5513 99.785ZM91.271 87.8659C91.271 83.4665 92.0448 79.4678 93.5513 75.8272L86.4797 72.906C84.5586 77.5482 83.6188 82.549 83.6188 87.8659H91.271ZM93.5513 75.8272C95.089 72.1111 97.1549 68.971 99.7335 66.3597L94.2867 60.9896C90.9668 64.3514 88.3694 68.3393 86.4797 72.906L93.5513 75.8272ZM99.7335 66.3597C102.375 63.6849 105.434 61.5929 108.936 60.0731L105.888 53.0604C101.499 54.9653 97.623 57.6116 94.2867 60.9896L99.7335 66.3597ZM108.924 60.0787C112.413 58.5794 116.142 57.8211 120.146 57.8211V50.1755C115.143 50.1755 110.382 51.1297 105.901 53.0549L108.924 60.0787ZM120.146 57.8211C124.219 57.8211 127.963 58.5507 131.416 59.9793L134.343 52.9153C129.905 51.0787 125.159 50.1755 120.146 50.1755V57.8211ZM131.459 59.9967C134.966 61.3985 137.987 63.3978 140.558 66.0013L146.005 60.6314C142.678 57.2618 138.764 54.6818 134.3 52.8979L131.459 59.9967ZM140.576 66.0195C143.137 68.5784 145.198 71.7053 146.736 75.457L153.817 72.5595C151.927 67.9488 149.325 63.9479 145.987 60.6133L140.576 66.0195ZM146.741 75.4688C148.238 79.0876 149.021 83.2015 149.021 87.8659H156.673C156.673 82.3361 155.742 77.2114 153.812 72.5476L146.741 75.4688ZM140.233 87.8659C140.233 84.8096 139.722 81.9318 138.625 79.2922L131.558 82.2235C132.215 83.805 132.581 85.6657 132.581 87.8659H140.233ZM138.657 79.3723C137.652 76.7884 136.23 74.5091 134.365 72.5958L128.883 77.9293C129.967 79.0423 130.857 80.4266 131.526 82.1434L138.657 79.3723ZM134.4 72.6315C132.544 70.6775 130.348 69.1899 127.844 68.1891L125.002 75.2878C126.483 75.8798 127.754 76.7416 128.848 77.8936L134.4 72.6315ZM127.93 68.2248C125.477 67.1743 122.869 66.6613 120.146 66.6613V74.3069C121.886 74.3069 123.463 74.6301 124.916 75.2521L127.93 68.2248ZM120.146 66.6613C117.422 66.6613 114.805 67.1743 112.327 68.2139L115.291 75.2629C116.799 74.6301 118.406 74.3069 120.146 74.3069V66.6613ZM112.363 68.1992C109.899 69.2038 107.734 70.6913 105.892 72.6315L111.443 77.8936C112.55 76.7278 113.813 75.8658 115.255 75.2777L112.363 68.1992ZM105.89 72.6334C104.08 74.5427 102.691 76.8097 101.694 79.3723L108.826 82.1434C109.502 80.4054 110.386 79.0087 111.445 77.8917L105.89 72.6334ZM101.703 79.3497C100.662 81.9733 100.178 84.8306 100.178 87.8659H107.831C107.831 85.6447 108.184 83.7635 108.817 82.1659L101.703 79.3497ZM100.178 87.8659C100.178 90.7745 100.673 93.5466 101.703 96.143L108.817 93.3268C108.173 91.7023 107.831 89.895 107.831 87.8659H100.178ZM101.703 96.143C102.7 98.6584 104.079 100.9 105.856 102.823L111.479 97.6371C110.387 96.4547 109.493 95.0325 108.817 93.3268L101.703 96.143ZM105.892 102.861C107.697 104.762 109.802 106.277 112.183 107.394L115.435 100.473C113.91 99.758 112.587 98.804 111.443 97.5991L105.892 102.861ZM112.268 107.432C114.759 108.527 117.397 109.07 120.146 109.07V101.425C118.431 101.425 116.845 101.092 115.35 100.434L112.268 107.432ZM120.146 109.07C122.869 109.07 125.477 108.557 127.93 107.507L124.916 100.48C123.463 101.102 121.886 101.425 120.146 101.425V109.07ZM127.905 107.518C130.36 106.487 132.525 105.025 134.365 103.136L128.883 97.8023C127.774 98.9396 126.472 99.8264 124.941 100.469L127.905 107.518ZM134.365 103.136C136.23 101.223 137.652 98.9432 138.657 96.3594L131.526 93.5882C130.857 95.305 129.967 96.6893 128.883 97.8023L134.365 103.136ZM138.635 96.4161C139.719 93.7582 140.233 90.892 140.233 87.8659H132.581C132.581 90.0164 132.218 91.8888 131.548 93.5315L138.635 96.4161ZM217.13 112.296L219.835 114.999L219.855 114.981L217.13 112.296ZM206.727 119.165L205.277 115.628L205.264 115.633L206.727 119.165ZM181.261 119.105L179.767 122.624L179.779 122.63L181.261 119.105ZM170.859 112.117L168.135 114.802L168.153 114.82L170.859 112.117ZM163.864 101.485L160.328 102.945L160.333 102.957L163.864 101.485ZM161.294 31.002V27.1792H157.467V31.002H161.294ZM177.674 31.002H181.5V27.1792H177.674V31.002ZM177.674 60.8675H173.848V71.9203L180.682 63.2292L177.674 60.8675ZM180.842 57.8807L178.675 54.7308L178.651 54.7468L178.628 54.7633L180.842 57.8807ZM184.908 55.7304L183.554 52.1552L183.537 52.1613L183.521 52.1676L184.908 55.7304ZM189.451 54.4762L190.127 58.2388L190.174 58.2305L190.22 58.221L189.451 54.4762ZM206.727 56.5669L205.205 60.0731L205.226 60.0823L205.247 60.0913L206.727 56.5669ZM224.125 74.3665L220.589 75.8272L220.595 75.8394L224.125 74.3665ZM208.941 80.9967L205.375 82.3823L205.39 82.4225L205.407 82.4624L208.941 80.9967ZM200.273 71.7982L198.704 75.2855L198.717 75.2914L198.731 75.2972L200.273 71.7982ZM187.658 71.9773L189.341 75.4105L189.355 75.4036L189.369 75.3966L187.658 71.9773ZM182.516 75.8599L185.325 78.4557L185.341 78.4385L185.357 78.421L182.516 75.8599ZM179.049 81.415L182.597 82.8464L182.606 82.8231L179.049 81.415ZM187.658 103.933L186.032 107.394L186.074 107.414L186.117 107.432L187.658 103.933ZM200.273 103.933L201.84 107.421L201.855 107.414L201.87 107.406L200.273 103.933ZM208.941 94.7349L205.407 93.2692L205.394 93.2979L205.382 93.3268L208.941 94.7349ZM222.87 87.8659C222.87 92.442 222.089 96.5174 220.589 100.143L227.662 103.065C229.588 98.4078 230.522 93.3245 230.522 87.8659H222.87ZM220.589 100.143C219.051 103.859 216.985 107 214.406 109.611L219.855 114.981C223.174 111.619 225.772 107.631 227.662 103.065L220.589 100.143ZM214.425 109.593C211.847 112.169 208.809 114.181 205.277 115.628L208.179 122.702C212.619 120.883 216.516 118.316 219.835 114.999L214.425 109.593ZM205.264 115.633C201.813 117.061 198.069 117.791 193.994 117.791V125.437C199.008 125.437 203.753 124.533 208.193 122.697L205.264 115.633ZM193.994 117.791C189.978 117.791 186.239 117.048 182.743 115.581L179.779 122.63C184.253 124.507 189.004 125.437 193.994 125.437V117.791ZM182.755 115.586C179.255 114.102 176.201 112.048 173.564 109.413L168.153 114.82C171.495 118.158 175.375 120.763 179.767 122.624L182.755 115.586ZM173.582 109.432C170.997 106.814 168.931 103.688 167.395 100.012L160.333 102.957C162.225 107.483 164.822 111.446 168.135 114.802L173.582 109.432ZM167.4 100.024C165.896 96.3907 165.12 92.3537 165.12 87.8659H157.467C157.467 93.2535 158.404 98.2956 160.328 102.945L167.4 100.024ZM165.12 87.8659V31.002H157.467V87.8659H165.12ZM161.294 34.8248H177.674V27.1792H161.294V34.8248ZM173.848 31.002V60.8675H181.5V31.002H173.848ZM180.682 63.2292C181.317 62.4218 182.101 61.6762 183.057 60.9984L178.628 54.7633C177.113 55.8375 175.784 57.0831 174.665 58.5056L180.682 63.2292ZM183.01 61.0309C184.043 60.3212 185.137 59.7432 186.294 59.2935L183.521 52.1676C181.809 52.8328 180.192 53.6883 178.675 54.7308L183.01 61.0309ZM186.262 59.3059C187.516 58.8317 188.804 58.4761 190.127 58.2388L188.775 50.7136C186.99 51.0338 185.248 51.5145 183.554 52.1552L186.262 59.3059ZM190.22 58.221C191.54 57.9503 192.797 57.8211 193.994 57.8211V50.1755C192.244 50.1755 190.471 50.3648 188.682 50.7314L190.22 58.221ZM193.994 57.8211C198.044 57.8211 201.767 58.5811 205.205 60.0731L208.252 53.0604C203.798 51.1278 199.033 50.1755 193.994 50.1755V57.8211ZM205.247 60.0913C208.77 61.5697 211.806 63.6314 214.389 66.2819L219.872 60.9482C216.557 57.5461 212.658 54.9087 208.21 53.0422L205.247 60.0913ZM214.389 66.2819C216.979 68.9395 219.049 72.107 220.589 75.8272L227.662 72.906C225.774 68.3435 223.179 64.3434 219.872 60.9482L214.389 66.2819ZM220.595 75.8394C222.095 79.4288 222.87 83.4217 222.87 87.8659H230.522C230.522 82.514 229.584 77.5075 227.656 72.8938L220.595 75.8394ZM214.081 87.8659C214.081 84.9348 213.559 82.1424 212.474 79.5311L205.407 82.4624C206.075 84.072 206.429 85.8591 206.429 87.8659H214.081ZM212.507 79.6112C211.504 77.0346 210.09 74.7509 208.248 72.8106L202.697 78.0729C203.804 79.2386 204.703 80.6582 205.375 82.3823L212.507 79.6112ZM208.248 72.8106C206.417 70.8832 204.263 69.3762 201.813 68.2992L198.731 75.2972C200.267 75.9721 201.577 76.8943 202.697 78.0729L208.248 72.8106ZM201.84 68.3108C199.372 67.2041 196.743 66.6613 193.994 66.6613V74.3069C195.71 74.3069 197.265 74.64 198.704 75.2855L201.84 68.3108ZM193.994 66.6613C191.17 66.6613 188.472 67.2968 185.947 68.5582L189.369 75.3966C190.829 74.667 192.357 74.3069 193.994 74.3069V66.6613ZM185.975 68.5442C183.578 69.7169 181.473 71.3088 179.676 73.2988L185.357 78.421C186.509 77.1455 187.831 76.1493 189.341 75.4105L185.975 68.5442ZM179.708 73.264C177.898 75.2192 176.495 77.4781 175.492 80.0066L182.606 82.8231C183.277 81.1305 184.186 79.6863 185.325 78.4557L179.708 73.264ZM175.501 79.9833C174.481 82.5083 173.967 85.1445 173.967 87.8659H181.62C181.62 86.1271 181.943 84.4629 182.597 82.8464L175.501 79.9833ZM173.967 87.8659C173.967 90.7745 174.462 93.5466 175.492 96.143L182.606 93.3268C181.962 91.7023 181.62 89.895 181.62 87.8659H173.967ZM175.492 96.143C176.498 98.6794 177.91 100.933 179.741 102.861L185.292 97.5991C184.173 96.4211 183.274 95.0113 182.606 93.3268L175.492 96.143ZM179.741 102.861C181.546 104.762 183.65 106.277 186.032 107.394L189.283 100.473C187.759 99.758 186.436 98.804 185.292 97.5991L179.741 102.861ZM186.117 107.432C188.608 108.527 191.246 109.07 193.994 109.07V101.425C192.28 101.425 190.693 101.092 189.198 100.434L186.117 107.432ZM193.994 109.07C196.743 109.07 199.372 108.527 201.84 107.421L198.704 100.446C197.265 101.092 195.71 101.425 193.994 101.425V109.07ZM201.87 107.406C204.296 106.292 206.431 104.776 208.248 102.861L202.697 97.5991C201.566 98.7907 200.234 99.7429 198.673 100.46L201.87 107.406ZM208.248 102.861C210.079 100.933 211.491 98.6794 212.497 96.143L205.382 93.3268C204.715 95.0113 203.816 96.4211 202.697 97.5991L208.248 102.861ZM212.474 96.2005C213.559 93.5892 214.081 90.7968 214.081 87.8659H206.429C206.429 89.8725 206.075 91.6596 205.407 93.2692L212.474 96.2005Z" fill="white"/>
<path d="M256.528 120.419H240.205V72.694H232.255V56.4472H240.205V53.401C240.205 49.4587 240.944 45.7554 242.419 42.291C243.932 38.8266 245.985 35.8202 248.577 33.2715C251.206 30.6833 254.255 28.6524 257.723 27.1791C261.19 25.6659 264.897 24.9092 268.842 24.9092H281.099V41.156H268.842C267.09 41.156 265.454 41.4746 263.941 42.1117C262.466 42.7092 261.171 43.5653 260.055 44.6802C258.978 45.7554 258.121 47.0496 257.484 48.5627C256.845 50.0362 256.528 51.6488 256.528 53.401V56.4472H276.553V72.694H256.528V120.419ZM305.968 39.0655C305.968 40.5788 305.668 41.9924 305.071 43.3063C304.512 44.6206 303.736 45.7753 302.739 46.7709C301.742 47.7266 300.568 48.503 299.211 49.1003C297.897 49.6579 296.481 49.9366 294.968 49.9366C293.453 49.9366 292.018 49.6579 290.664 49.1003C289.348 48.503 288.192 47.7266 287.196 46.7709C286.239 45.7753 285.462 44.6206 284.864 43.3063C284.307 41.9924 284.028 40.5788 284.028 39.0655C284.028 37.5922 284.307 36.1984 284.864 34.8844C285.462 33.5305 286.239 32.3757 287.196 31.42C288.192 30.4245 289.348 29.6479 290.664 29.0905C292.018 28.493 293.453 28.1945 294.968 28.1945C296.481 28.1945 297.897 28.493 299.211 29.0905C300.568 29.6479 301.742 30.4245 302.739 31.42C303.736 32.3757 304.512 33.5305 305.071 34.8844C305.668 36.1984 305.968 37.5922 305.968 39.0655ZM303.158 120.419H286.717V56.4472H303.158V120.419ZM347.755 120.419C343.81 120.419 340.103 119.683 336.636 118.209C333.168 116.696 330.119 114.645 327.49 112.057C324.898 109.429 322.845 106.382 321.332 102.918C319.857 99.4535 319.119 95.7504 319.119 91.8079V72.8136H311.168V56.5668H319.119V31.0019H335.379V56.5668H360.13V72.8136H335.379V91.8079C335.379 93.5203 335.699 95.133 336.336 96.6462C336.975 98.1195 337.851 99.4137 338.968 100.529C340.084 101.644 341.398 102.54 342.913 103.217C344.428 103.854 346.041 104.172 347.755 104.172H360.13V120.419H347.755ZM389.423 114.327C389.423 115.76 389.165 117.114 388.646 118.388C388.128 119.623 387.41 120.698 386.494 121.614C385.578 122.53 384.503 123.246 383.267 123.764C382.031 124.322 380.696 124.6 379.261 124.6C377.866 124.6 376.531 124.322 375.255 123.764C374.019 123.246 372.925 122.53 371.968 121.614C371.05 120.698 370.314 119.623 369.755 118.388C369.236 117.114 368.978 115.76 368.978 114.327C368.978 112.933 369.236 111.619 369.755 110.384C370.314 109.15 371.05 108.075 371.968 107.159C372.925 106.243 374.019 105.526 375.255 105.009C376.531 104.451 377.866 104.172 379.261 104.172C380.696 104.172 382.031 104.451 383.267 105.009C384.503 105.526 385.578 106.243 386.494 107.159C387.41 108.075 388.128 109.15 388.646 110.384C389.165 111.619 389.423 112.933 389.423 114.327Z" fill="#CB6CE4"/>
</svg>
