<svg width="225" height="60" viewBox="0 0 225 60" fill="none" xmlns="http://www.w3.org/2000/svg">
    <path d="M10.9866 57.0999H0.896744V6.68579H10.9866V26.8655H31.1311V6.68579H41.221V57.0999H31.1311V36.9553H10.9866V57.0999ZM85.8444 37.9397C85.8444 40.7522 85.3405 43.3772 84.3326 45.8147C83.3248 48.2288 81.9537 50.3264 80.2194 52.1077C78.485 53.8655 76.4459 55.26 74.1022 56.2913C71.7819 57.2991 69.2858 57.803 66.6139 57.803C63.9655 57.803 61.4694 57.2991 59.1256 56.2913C56.8053 55.26 54.7662 53.8655 53.0084 52.1077C51.2741 50.3264 49.903 48.2288 48.8951 45.8147C47.8873 43.3772 47.3834 40.7522 47.3834 37.9397C47.3834 35.0803 47.8873 32.4319 48.8951 29.9944C49.903 27.5569 51.2741 25.4592 53.0084 23.7014C54.7662 21.9202 56.8053 20.5256 59.1256 19.5178C61.4694 18.51 63.9655 18.0061 66.6139 18.0061C69.2858 18.0061 71.7819 18.4866 74.1022 19.4475C76.4459 20.385 78.485 21.7327 80.2194 23.4905C81.9537 25.2249 83.3248 27.3225 84.3326 29.7834C85.3405 32.2209 85.8444 34.9397 85.8444 37.9397ZM76.1764 37.9397C76.1764 36.3928 75.9186 34.9983 75.403 33.7561C74.9108 32.4905 74.2311 31.4124 73.3639 30.5217C72.4967 29.6077 71.4772 28.9163 70.3053 28.4475C69.1569 27.9553 67.9264 27.7092 66.6139 27.7092C65.3014 27.7092 64.0592 27.9553 62.8873 28.4475C61.7389 28.9163 60.7311 29.6077 59.8639 30.5217C59.0201 31.4124 58.3522 32.4905 57.86 33.7561C57.3678 34.9983 57.1217 36.3928 57.1217 37.9397C57.1217 39.3928 57.3678 40.7405 57.86 41.9827C58.3522 43.2249 59.0201 44.303 59.8639 45.217C60.7311 46.1311 61.7389 46.8577 62.8873 47.3967C64.0592 47.9124 65.3014 48.1702 66.6139 48.1702C67.9264 48.1702 69.1569 47.9241 70.3053 47.4319C71.4772 46.9397 72.4967 46.2483 73.3639 45.3577C74.2311 44.467 74.9108 43.3889 75.403 42.1233C75.9186 40.8577 76.1764 39.4631 76.1764 37.9397ZM129.272 37.9397C129.272 40.8928 128.769 43.5881 127.761 46.0256C126.753 48.4631 125.382 50.5608 123.647 52.3186C121.913 54.053 119.874 55.4006 117.53 56.3616C115.21 57.3225 112.714 57.803 110.042 57.803C107.394 57.803 104.897 57.3108 102.554 56.3264C100.233 55.342 98.1943 53.9709 96.4365 52.2131C94.7021 50.4553 93.3311 48.3694 92.3232 45.9553C91.3154 43.5178 90.8115 40.8459 90.8115 37.9397V4.47095H100.444V22.0491C100.96 21.3928 101.581 20.8069 102.308 20.2913C103.058 19.7756 103.854 19.3538 104.698 19.0256C105.565 18.6975 106.456 18.4514 107.37 18.2874C108.284 18.0999 109.175 18.0061 110.042 18.0061C112.714 18.0061 115.21 18.51 117.53 19.5178C119.874 20.5022 121.913 21.885 123.647 23.6663C125.382 25.4475 126.753 27.5569 127.761 29.9944C128.769 32.4084 129.272 35.0569 129.272 37.9397ZM119.604 37.9397C119.604 36.4866 119.347 35.1389 118.831 33.8967C118.339 32.6311 117.659 31.5413 116.792 30.6272C115.925 29.7131 114.905 28.9983 113.733 28.4827C112.585 27.967 111.354 27.7092 110.042 27.7092C108.729 27.7092 107.487 28.0022 106.315 28.5881C105.167 29.1506 104.159 29.9124 103.292 30.8733C102.425 31.8108 101.745 32.9006 101.253 34.1428C100.761 35.3616 100.515 36.6272 100.515 37.9397C100.515 39.3928 100.761 40.7405 101.253 41.9827C101.745 43.2249 102.425 44.303 103.292 45.217C104.159 46.1311 105.167 46.8577 106.315 47.3967C107.487 47.9124 108.729 48.1702 110.042 48.1702C111.354 48.1702 112.585 47.9124 113.733 47.3967C114.905 46.8577 115.925 46.1311 116.792 45.217C117.659 44.303 118.339 43.2249 118.831 41.9827C119.347 40.7405 119.604 39.3928 119.604 37.9397Z" fill="black"/>
    <path d="M146.815 57.0999H137.218V29.01H132.542V19.4475H137.218V17.6545C137.218 15.3342 137.651 13.1545 138.519 11.1155C139.409 9.07642 140.616 7.30688 142.14 5.80688C143.687 4.28345 145.479 3.08813 147.519 2.22095C149.558 1.33032 151.737 0.88501 154.058 0.88501H161.265V10.4475H154.058C153.026 10.4475 152.065 10.635 151.175 11.01C150.308 11.3616 149.546 11.8655 148.89 12.5217C148.257 13.1545 147.753 13.9163 147.378 14.8069C147.003 15.6741 146.815 16.6233 146.815 17.6545V19.4475H158.593V29.01H146.815V57.0999ZM175.89 9.21704C175.89 10.1077 175.714 10.9397 175.362 11.7131C175.034 12.4866 174.577 13.1663 173.991 13.7522C173.405 14.3147 172.714 14.7717 171.917 15.1233C171.144 15.4514 170.312 15.6155 169.421 15.6155C168.53 15.6155 167.687 15.4514 166.89 15.1233C166.116 14.7717 165.437 14.3147 164.851 13.7522C164.288 13.1663 163.831 12.4866 163.479 11.7131C163.151 10.9397 162.987 10.1077 162.987 9.21704C162.987 8.34985 163.151 7.52954 163.479 6.7561C163.831 5.95923 164.288 5.27954 164.851 4.71704C165.437 4.1311 166.116 3.67407 166.89 3.34595C167.687 2.99438 168.53 2.8186 169.421 2.8186C170.312 2.8186 171.144 2.99438 171.917 3.34595C172.714 3.67407 173.405 4.1311 173.991 4.71704C174.577 5.27954 175.034 5.95923 175.362 6.7561C175.714 7.52954 175.89 8.34985 175.89 9.21704ZM174.237 57.0999H164.569V19.4475H174.237V57.0999ZM200.464 57.0999C198.144 57.0999 195.964 56.6663 193.925 55.7991C191.886 54.9084 190.093 53.7014 188.546 52.178C187.022 50.6311 185.815 48.8381 184.925 46.7991C184.058 44.76 183.624 42.5803 183.624 40.26V29.0803H178.948V19.5178H183.624V4.47095H193.187V19.5178H207.741V29.0803H193.187V40.26C193.187 41.2678 193.374 42.217 193.749 43.1077C194.124 43.9749 194.64 44.7366 195.296 45.3928C195.952 46.0491 196.726 46.5764 197.616 46.9749C198.507 47.3499 199.456 47.5374 200.464 47.5374H207.741V57.0999H200.464ZM224.968 53.5139C224.968 54.3577 224.815 55.1545 224.511 55.9045C224.206 56.6311 223.784 57.2639 223.245 57.803C222.706 58.342 222.073 58.7639 221.347 59.0686C220.62 59.3967 219.835 59.5608 218.991 59.5608C218.171 59.5608 217.386 59.3967 216.636 59.0686C215.909 58.7639 215.265 58.342 214.702 57.803C214.163 57.2639 213.729 56.6311 213.401 55.9045C213.097 55.1545 212.944 54.3577 212.944 53.5139C212.944 52.6936 213.097 51.9202 213.401 51.1936C213.729 50.467 214.163 49.8342 214.702 49.2952C215.265 48.7561 215.909 48.3342 216.636 48.0295C217.386 47.7014 218.171 47.5374 218.991 47.5374C219.835 47.5374 220.62 47.7014 221.347 48.0295C222.073 48.3342 222.706 48.7561 223.245 49.2952C223.784 49.8342 224.206 50.467 224.511 51.1936C224.815 51.9202 224.968 52.6936 224.968 53.5139Z" fill="#CB6CE4"/>
</svg>
