<svg width="27" height="29" viewBox="0 0 27 29" fill="none" xmlns="http://www.w3.org/2000/svg">
<path d="M26.6375 8.80779C26.575 7.32003 26.3454 6.29722 26.0167 5.41093C25.6775 4.47016 25.1557 3.62789 24.4721 2.92771C23.8041 2.21663 22.9954 1.6641 22.1083 1.31411C21.258 0.969469 20.2873 0.728882 18.8681 0.663286C17.4383 0.592136 16.9844 0.575684 13.3579 0.575684C9.73144 0.575684 9.27752 0.592136 7.85298 0.657731C6.43375 0.723326 5.45803 0.964127 4.61277 1.30856C3.71512 1.6641 2.91164 2.21108 2.24371 2.92771C1.56538 3.62789 1.03849 4.47572 0.70442 5.40559C0.37565 6.29722 0.146143 7.31448 0.0835684 8.80223C0.0156945 10.3011 0 10.7769 0 14.5785C0 18.38 0.0156945 18.8558 0.0782689 20.3491C0.140843 21.8369 0.370554 22.8597 0.699325 23.746C1.03849 24.6868 1.56538 25.529 2.24371 26.2292C2.91164 26.9403 3.72042 27.4928 4.60747 27.8428C5.45803 28.1875 6.42845 28.428 7.84789 28.4936C9.27222 28.5594 9.72634 28.5757 13.3528 28.5757C16.9793 28.5757 17.4332 28.5594 18.8577 28.4936C20.277 28.428 21.2527 28.1875 22.0979 27.8428C23.893 27.1153 25.3123 25.6275 26.0063 23.746C26.3348 22.8544 26.5646 21.8369 26.6271 20.3491C26.6897 18.8558 26.7054 18.38 26.7054 14.5785C26.7054 10.7769 26.7001 10.3011 26.6375 8.80779ZM24.2322 20.2397C24.1747 21.6072 23.9556 22.3456 23.773 22.8379C23.3241 24.0577 22.4006 25.0258 21.237 25.4963C20.7674 25.6878 20.0578 25.9175 18.7585 25.9775C17.3496 26.0433 16.9271 26.0596 13.3632 26.0596C9.79931 26.0596 9.37148 26.0433 7.96774 25.9775C6.66325 25.9175 5.95883 25.6878 5.48922 25.4963C4.91015 25.272 4.38306 24.9165 3.95523 24.4515C3.51171 23.9975 3.17254 23.4505 2.95852 22.8435C2.7759 22.3512 2.55679 21.6072 2.49951 20.2453C2.43673 18.7684 2.42124 18.3253 2.42124 14.5894C2.42124 10.8534 2.43673 10.4049 2.49951 8.93363C2.55679 7.56618 2.7759 6.82775 2.95852 6.33546C3.17254 5.72823 3.51171 5.1759 3.96053 4.7272C4.39346 4.26227 4.91525 3.90673 5.49452 3.68259C5.96413 3.49115 6.67385 3.26146 7.97304 3.2012C9.38188 3.13561 9.80461 3.11916 13.3683 3.11916C16.9375 3.11916 17.36 3.13561 18.7638 3.2012C20.0682 3.26146 20.7727 3.49115 21.2423 3.68259C21.8213 3.90673 22.3484 4.26227 22.7763 4.7272C23.2198 5.18124 23.5589 5.72823 23.773 6.33546C23.9556 6.82775 24.1747 7.57152 24.2322 8.93363C24.2948 10.4105 24.3105 10.8534 24.3105 14.5894C24.3105 18.3253 24.2948 18.7629 24.2322 20.2397Z" fill="white"/>
<path d="M13.3528 7.703C9.53041 7.703 6.42914 10.7813 6.42914 14.5757C6.42914 18.3702 9.53041 21.4485 13.3528 21.4485C17.1753 21.4485 20.2764 18.3702 20.2764 14.5757C20.2764 10.7813 17.1753 7.703 13.3528 7.703ZM13.3528 19.0339C10.873 19.0339 8.86158 17.0375 8.86158 14.5757C8.86158 12.114 10.873 10.1176 13.3528 10.1176C15.8327 10.1176 17.8439 12.114 17.8439 14.5757C17.8439 17.0375 15.8327 19.0339 13.3528 19.0339Z" fill="white"/>
<path d="M22.2545 7.19378C22.2545 8.03719 21.4795 8.72105 20.5235 8.72105C19.5677 8.72105 18.7927 8.03719 18.7927 7.19378C18.7927 6.35017 19.5677 5.6665 20.5235 5.6665C21.4795 5.6665 22.2545 6.35017 22.2545 7.19378Z" fill="white"/>
</svg>
