<svg width="27" height="28" viewBox="0 0 27 28" fill="none" xmlns="http://www.w3.org/2000/svg">
<path d="M24.8985 0.575684H2.51709C1.4753 0.575684 0.630859 1.44496 0.630859 2.51739V25.557C0.630859 26.6295 1.4753 27.4988 2.51709 27.4988H24.8985C25.9403 27.4988 26.7847 26.6295 26.7847 25.557V2.51739C26.7847 1.44496 25.9403 0.575684 24.8985 0.575684V0.575684ZM9.90778 20.9257H6.72295V11.0623H9.90778V20.9257ZM8.31547 9.71546H8.29472C7.22599 9.71546 6.53479 8.95813 6.53479 8.01161C6.53479 7.04374 7.24714 6.30735 8.33662 6.30735C9.4261 6.30735 10.0965 7.04374 10.1173 8.01161C10.1173 8.95813 9.4261 9.71546 8.31547 9.71546ZM21.3916 20.9257H18.2072V15.649C18.2072 14.3229 17.746 13.4185 16.5937 13.4185C15.7139 13.4185 15.19 14.0286 14.9597 14.6175C14.8755 14.8282 14.8549 15.1228 14.8549 15.4176V20.9257H11.6703C11.6703 20.9257 11.712 11.9877 11.6703 11.0623H14.8549V12.4589C15.2781 11.7868 16.0354 10.8308 17.7251 10.8308C19.8204 10.8308 21.3916 12.2405 21.3916 15.2701V20.9257Z" fill="white"/>
</svg>
