<svg width="280" height="60" viewBox="0 0 280 60" fill="none" xmlns="http://www.w3.org/2000/svg">
<g clip-path="url(#clip0_1573_1630)">
<path d="M6.07528 6.42998L0.104492 11.9415V35.4069V58.9143H68.9982H137.892V53.4864V48.0583H143.946H150V24.4676V0.87674L81.0232 0.918493H12.0043L6.07528 6.42998ZM146.242 24.4676V44.3004H80.898H15.5533V24.4676V4.63458H80.898H146.242V24.4676ZM12.2131 8.80993V11.7327H8.99802L5.74124 11.6909L8.83102 8.80993C10.5429 7.18154 12.0043 5.88719 12.0878 5.88719C12.1713 5.88719 12.2131 7.18154 12.2131 8.80993ZM12.2131 30.0626V44.6346L8.20471 48.3507C5.99176 50.3549 4.0711 52.0666 3.94584 52.1502C3.7788 52.1919 3.69532 43.9666 3.7788 33.8621L3.86232 15.4905H8.03768H12.2131V30.0626ZM134.551 51.6075V55.1565H70.376L6.15876 55.1148L9.91659 51.6075L13.6744 48.1002L74.1339 48.0583H134.551V51.6075Z" fill="#6C6B6B"/>
<path d="M25.9917 13.9455C25.9917 14.2378 26.8268 16.9935 27.8706 20.0833C29.666 25.4695 29.7495 25.8871 29.7495 30.6052V35.5322H31.6284H33.5074V30.6052C33.5074 25.8871 33.591 25.4695 35.3863 20.0833C36.43 16.9935 37.2652 14.2378 37.2652 13.9038C37.2652 13.528 36.8058 13.4027 35.7204 13.4862L34.1753 13.6115L33.1316 17.4528C32.5469 19.5823 31.9206 21.3359 31.7954 21.3359C31.6284 21.3359 31.3779 20.8349 31.2109 20.1668C31.0857 19.5405 30.5846 17.7868 30.0836 16.2002L29.2485 13.4027H27.6201C26.5763 13.4027 25.9917 13.6115 25.9917 13.9455Z" fill="#6C6B6B"/>
<path d="M40.1045 14.6135L38.7266 15.8244L38.6014 23.9246C38.4761 30.8975 38.5594 32.1501 39.1857 33.3191C40.9813 36.7012 46.4928 36.7012 48.2881 33.3191C48.9144 32.1501 48.998 30.8975 48.8728 23.9246L48.7475 15.8244L47.3696 14.6135C46.2423 13.5697 45.6576 13.4027 43.7371 13.4027C41.8162 13.4027 41.2319 13.5697 40.1045 14.6135ZM45.1149 16.8265C45.7412 17.4528 45.8245 31.0227 45.1982 32.2337C44.6139 33.2775 42.8602 33.2775 42.2756 32.2337C42.0251 31.7743 41.8582 28.434 41.8582 24.3839C41.8582 16.9935 42.0251 16.3254 43.7371 16.3254C44.2381 16.3254 44.8225 16.5342 45.1149 16.8265Z" fill="#6C6B6B"/>
<path d="M51.4613 22.8809C51.4613 31.5657 51.5449 32.5262 52.2965 33.7368C53.9665 36.4926 58.7684 36.4926 60.8142 33.7368C61.6494 32.6095 61.6911 32.025 61.6911 23.0897V13.6116L60.1463 13.4864L58.5595 13.3611V22.3799C58.5595 27.8079 58.3926 31.7327 58.1421 32.2337C57.6411 33.1105 56.0543 33.2778 55.3027 32.5262C54.927 32.1503 54.8017 29.3945 54.8017 22.7139V13.4029H53.1317H51.4613V22.8809Z" fill="#6C6B6B"/>
<path d="M64.4052 24.4674V35.5322H66.0752H67.7455V30.6887V25.8871L69.0815 26.0123C70.9604 26.1793 71.5034 27.4319 71.5034 31.8578V35.5322H73.1734H74.8435V32.2754C74.8018 28.3088 74.3008 25.9288 73.257 25.052C72.4635 24.4257 72.4635 24.3839 73.4239 23.2566C74.2591 22.338 74.426 21.6699 74.426 19.457C74.426 17.9956 74.2172 16.3255 73.9666 15.7409C73.2987 14.2795 70.7935 13.4027 67.3278 13.4027H64.4052V24.4674ZM70.2924 16.743C70.9187 17.1188 71.0856 17.6616 71.0856 19.5823C71.0856 22.2962 70.6265 23.0061 68.9145 23.0061H67.7455V19.9581C67.7455 18.2461 67.8708 16.743 68.0377 16.6178C68.4135 16.2002 69.332 16.242 70.2924 16.743Z" fill="#6C6B6B"/>
<path d="M79.1023 13.9455C77.4739 14.8641 76.7643 16.3255 76.7643 18.7054C76.806 21.2942 77.4323 22.338 80.7307 25.5948C82.4427 27.3067 83.2359 28.434 83.4448 29.5196C83.8206 31.482 83.1107 33.0269 81.8164 33.0269C80.4802 33.0269 79.8539 32.2754 79.8539 30.647C79.8539 29.3109 79.8122 29.2691 78.1422 29.2691H76.3885L76.6391 31.1898C77.3906 37.9538 86.9521 37.1605 86.9521 30.3547C86.9521 28.0165 86.0753 26.3881 83.1107 23.3401C80.2716 20.4591 79.4781 18.6637 80.2716 17.1188C80.7727 16.242 82.3591 16.075 83.1107 16.8265C83.4032 17.1188 83.6117 17.8286 83.6117 18.4132C83.6117 19.457 83.737 19.5405 85.2821 19.5405C86.7432 19.5405 86.9521 19.4153 86.9521 18.5384C86.9521 17.0353 85.9084 14.8641 84.8227 14.0708C83.6537 13.2775 80.4802 13.1939 79.1023 13.9455Z" fill="#6C6B6B"/>
<path d="M88.2047 14.9476V16.5342H89.9584H91.7537L91.8789 26.0123L91.9625 35.5322H93.6326H95.3029V25.9288V16.3255H97.2235C99.1024 16.3255 99.1024 16.3255 98.9772 14.9476L98.8519 13.6115L93.5493 13.4862L88.2047 13.361V14.9476Z" fill="#6C6B6B"/>
<path d="M102.568 14.1961C100.605 15.3652 100.313 16.8684 100.313 24.8433C100.313 32.7348 100.522 33.4447 102.777 34.9895C104.405 36.0752 105.992 36.2004 108.038 35.3652C110.501 34.3215 110.752 33.2358 110.752 24.217V16.2421L109.332 14.8224C108.121 13.6116 107.62 13.4028 105.908 13.4028C104.614 13.4028 103.361 13.6951 102.568 14.1961ZM106.91 16.8266C107.244 17.1606 107.411 19.4988 107.411 24.6763C107.411 29.8537 107.244 32.1919 106.91 32.5259C106.159 33.2775 104.572 33.1105 104.071 32.2337C103.82 31.7744 103.653 28.5176 103.653 24.6763C103.653 20.8349 103.82 17.5782 104.071 17.1189C104.572 16.2421 106.159 16.075 106.91 16.8266Z" fill="#6C6B6B"/>
<path d="M113.257 24.4674V35.5322H114.927H116.555L116.681 30.814L116.806 26.1376L117.933 26.0123C119.77 25.8035 120.355 27.1814 120.355 31.6491V35.5322H122.15H123.904L123.779 31.6908C123.653 26.8891 123.487 26.1793 122.317 25.052C121.691 24.4257 121.566 24.0917 121.941 23.9664C123.695 23.2983 124.321 17.9539 122.86 15.6157C121.9 14.029 120.063 13.4027 116.096 13.4027H113.257V24.4674ZM119.603 17.0353C120.105 17.4946 120.355 18.2879 120.355 19.5405C120.355 22.171 119.812 23.0061 118.058 23.0061H116.597V19.9581C116.597 18.2461 116.722 16.743 116.889 16.6178C117.39 16.1167 118.81 16.3255 119.603 17.0353Z" fill="#6C6B6B"/>
<path d="M124.948 13.695C124.948 13.9038 125.908 16.8683 127.036 20.2921C129.04 26.2211 129.123 26.7221 129.123 31.0228V35.5322H130.793H132.463V30.7722C132.463 26.2628 132.547 25.7201 134.301 20.4173C135.303 17.3693 136.263 14.5301 136.43 14.1125C136.681 13.528 136.472 13.4027 135.052 13.4027H133.382L132.547 16.2002C132.046 17.7868 131.545 19.5405 131.42 20.1668C131.252 20.8349 131.002 21.3359 130.835 21.3359C130.71 21.3359 130.083 19.5823 129.499 17.4528L128.455 13.6115L126.701 13.4862C125.741 13.4027 124.948 13.528 124.948 13.695Z" fill="#6C6B6B"/>
</g>
<g clip-path="url(#clip1_1573_1630)">
<path d="M194.775 1.27322C194.775 1.41737 191.532 10.8588 187.568 22.3183C183.604 33.7778 180.361 43.2192 180.361 43.3633C180.361 43.5075 182.307 43.5795 184.613 43.5795H188.865L190.234 39.039L191.604 34.5705L199.243 34.3543L206.883 34.1381L208.469 38.8948L210.054 43.5795H214.234H218.487L211.352 22.6066C207.388 11.075 204.144 1.48944 204.144 1.3453C204.144 1.20115 202.054 1.05701 199.46 1.05701C196.865 1.05701 194.775 1.12908 194.775 1.27322ZM201.982 18.4985C203.28 22.4624 204.433 26.2102 204.649 26.7867C204.937 27.5075 203.856 27.7237 199.532 27.7237C196.505 27.7237 194.054 27.5795 194.054 27.3633C194.054 27.075 197.37 16.2642 198.739 12.012C199.316 10.2822 199.748 11.2192 201.982 18.4985Z" fill="#6C6B6B"/>
<path d="M225.766 22.3183V43.5795H230.09H234.415L234.559 28.9489L234.775 14.3903L243.424 28.9489L252.072 43.5795H256.541H261.081V22.3183V1.05701H256.757H252.432L252.289 15.6156L252.072 30.2462L243.424 15.6876L234.775 1.05701H230.307H225.766V22.3183Z" fill="#6C6B6B"/>
<path d="M271.171 22.3183V43.5795H275.496H279.82V22.3183V1.05701H275.496H271.171V22.3183Z" fill="#6C6B6B"/>
</g>
<defs>
<clipPath id="clip0_1573_1630">
<rect width="150" height="58.2463" fill="white" transform="translate(0 0.876831)"/>
</clipPath>
<clipPath id="clip1_1573_1630">
<rect width="100" height="42.7027" fill="white" transform="translate(180 0.876831)"/>
</clipPath>
</defs>
</svg>
